<?xml version="1.0" encoding="utf-8"?>
<!-- Generator: Adobe Illustrator 28.1.0, SVG Export Plug-In . SVG Version: 6.00 Build 0)  -->
<svg version="1.1" id="Layer_1" xmlns="http://www.w3.org/2000/svg" xmlns:xlink="http://www.w3.org/1999/xlink" x="0px" y="0px"
	 viewBox="0 0 593.5 1126.2" style="enable-background:new 0 0 593.5 1126.2;" xml:space="preserve">
<style type="text/css">
	.st0{fill:#007E2D;}
	.st1{fill:#FFEB7F;}
	.st2{fill:#285E18;stroke:#285E18;stroke-width:1.631;stroke-miterlimit:3.864;}
	.st3{fill-rule:evenodd;clip-rule:evenodd;fill:#285E18;stroke:#285E18;stroke-width:1.631;stroke-miterlimit:3.864;}
	.st4{fill-rule:evenodd;clip-rule:evenodd;fill:#285E18;}
	.st5{fill:none;stroke:#285E18;stroke-width:1.631;stroke-miterlimit:3.864;}
	.st6{fill:#285E18;stroke:#285E18;stroke-width:1.698;stroke-miterlimit:3.864;}
	.st7{fill:none;stroke:#285E18;stroke-width:8.029;stroke-miterlimit:3.864;}
	.st8{fill:#285E18;}
	.st9{fill:#285E18;stroke:#285E18;stroke-width:8.029;stroke-miterlimit:3.864;}
	.st10{fill:#285E18;stroke:#285E18;stroke-width:2.508;stroke-miterlimit:3.864;}
	.st11{fill:#FFEB7F;stroke:#FFEB7F;stroke-width:0.918;stroke-miterlimit:3.864;}
</style>
<path class="st0" d="M134.3,431.7l-16.5,30.7l-17.5-23.1l-23.5,25.9l-4-29.9l-41.5,24.4l19.6-46.2l-34.5,8.6l25.9-28.3l-19.6-4.7
	l29.8-18.8l493.2-3.9l31.4,22.8l-24.3,1.6l17.2,22.8l-18.7-2.5l11.6,44.8l-41.6-20.4l-3.1,27.5L491,444l-13.6,18.5l-17.1-34.3
	l-11.9,20.7l-8.1-19.8l-17.4,31.3l-18.2-29.8l-12.4,18.3l-14-17.1L354.5,459l-14-28l-6.7,37l-18-36.2L305,474.2l-16.4-42.5
	l-19.1,32.8l-15.7-32.2l-16.5,24.1l-20.5-23.3l-14.9,18.2l-12.3-19.1l-15.7,24.1l-24.7-24.1l-7.6,19.9L134.3,431.7z M134.3,57.9
	l-16.5-30.7l-17.5,23.1L76.8,24.4l-4,29.9L31.3,29.9l19.6,46.2l-34.5-8.6l25.9,28.3l-19.6,4.7l29.8,18.8l493.2,4l31.4-22.8
	l-24.3-1.6L570,76.1l-18.7,2.5L563,33.8l-41.6,20.4l-3.1-27.5L491,45.6l-13.6-18.5l-17.1,34.3l-11.9-20.7l-8.1,19.8l-17.4-31.3
	L404.7,59l-12.4-18.3l-14,17.1l-23.8-27.2l-14,28l-6.7-37l-18,36.2l-9.2-15.4l-18,15.4L269.5,25l-15.7,32.2l-16.5-24.1l-20.5,23.3
	l-14.9-18.2l-12.3,19.1l-15.7-24.1l-24.7,24.1l-7.6-19.9L134.3,57.9z"/>
<path class="st0" d="M51.9,64.8l66.1-6.9l243.4,3.2l187.7,19.6l6.6,140.2l-4.9,100.6l-6.6,103l-129.8-3.8l-228,10.4l-136.9-1.7v-66
	l-9.9-164.9L51.9,64.8z"/>
<path class="st1" d="M66.5,76.1l-6.6,115.8l-2.5,77.9l6.4,85.3l3.4,60.3l121.7-1.1l217.9,4.2l120.6-2.1l3.4-103.4l0.8-95.9L528.2,77
	l-167.5-4.4l-231.5-3L66.5,76.1z"/>
<path class="st0" d="M71.8,81.4l61.2-6.2l225.3,2.9l164.5,4.3L526,211l0.3,101.2l-5.3,100l-117.1,1.6l-205.3-4.9l-126.2,1.6l-3.3-61
	l-5.4-93l1.6-63.9L71.8,81.4z"/>
<path class="st1" d="M91.4,98.9l-4.9,99.8L83,254.5l6.8,81l3.3,55.2h112.1l194.6,2.5l102.1-1.8L507,333V216l-4.9-113.8l-151.5-5.1
	l-201.3-2.6L91.4,98.9z"/>
<path class="st2" d="M146.1,365.5c0,0-27.4-0.1-27.4-1.4c0-2.8,20.8-65.3,20.8-65.3l-19.4-5.1l-13.6,79.1l37,4.1L146.1,365.5z"/>
<path class="st3" d="M199.9,312.2l-40.9-8.5l-5.3,4.2l11.7,65.5l5.7,3.5l26.7-14.3l-3.6-7l-19.7,7.2l1,1l-2.5-19.6l17.3-2l-0.5-7.9
	l-17.2,2l-1.1-17.4h0.9l26.3,0.5L199.9,312.2z"/>
<path class="st2" d="M233.7,302.9l-19.8,8.2l4.8,63.3l11.2,0.1L233.7,302.9z"/>
<path class="st4" d="M299.5,326.5c-4.4-25.2-36.3-26.5-52.1-20.6c-0.6,0.3,16.7,69.8,16.7,69.8l9.9-0.3c0,0-2.3-18-3.2-24.1
	C280.8,351.4,303.5,347.8,299.5,326.5L299.5,326.5z M282.9,332.4c0.8,9.6-9.4,11.1-12.5,11.1c-0.9-4-3-22.8-2.9-25.8
	C270.8,316.8,281.6,321.2,282.9,332.4L282.9,332.4z"/>
<path class="st5" d="M299.5,326.5c-4.4-25.2-36.3-26.5-52.1-20.6c-0.6,0.3,16.7,69.8,16.7,69.8l9.9-0.3c0,0-2.3-18-3.2-24.1
	C280.8,351.4,303.5,347.8,299.5,326.5L299.5,326.5z M282.9,332.4c0.8,9.6-9.4,11.1-12.5,11.1c-0.9-4-3-22.8-2.9-25.8
	C270.8,316.8,281.6,321.2,282.9,332.4L282.9,332.4z"/>
<path class="st2" d="M407.2,303.9l-20.5,6.5l-0.9,63.5l11.1,1.1L407.2,303.9z M485.9,308.5c-20.9-23.3-67.8-2.3-74.2,30.4
	c-5.6,28.4,16.7,39,30.7,39c16.2,0,35.4-15.9,34.2-34.8l-22.7-5.2l-5.9,10.8c0,0,16.3,0.9,15.9,2c-4.2,13.3-13.1,16.4-24.6,13.4
	c-14.1-4-20-11.8-15-25.9c5.9-16.9,38-30.7,49.6-14.2L485.9,308.5z"/>
<path class="st6" d="M379.1,360.9l-4.8-9.8l-34.8,6.7l24.8-54.8L305,314.6l3.9,11.9l30.5-5.9l-28.6,57.7L379.1,360.9z"/>
<path class="st4" d="M482.7,162.6c-7.7-35.9-39.1-53.1-72.4-43.2c-43.1,12.9-39.6,46.5-33.3,71.4c9.2,36.3,51.4,58.5,73.9,50.6
	C466,236.1,494.7,215.1,482.7,162.6z M457.2,177.1c6.7,27-5.3,42.8-16.5,46.3c-10.7,3-23.8,0.5-35-29.7
	c-9.7-26.7,4.6-40.5,15.8-46.3C431,142.5,449.6,149,457.2,177.1z"/>
<path class="st7" d="M482.7,162.6c-7.7-35.9-39.1-53.1-72.4-43.2c-43.1,12.9-39.6,46.5-33.3,71.4c9.2,36.3,51.4,58.5,73.9,50.6
	C466,236.1,494.7,215.1,482.7,162.6z M457.2,177.1c6.7,27-5.3,42.8-16.5,46.3c-10.7,3-23.8,0.5-35-29.7
	c-9.7-26.7,4.6-40.5,15.8-46.3C431,142.5,449.6,149,457.2,177.1z"/>
<path class="st8" d="M105.2,262.4l108.3-3.1l144.4,4.6l125.4-3l8,18.1l-162.9,2.3l-132.1-4.8l-92.6,3.7L105.2,262.4z"/>
<path class="st9" d="M230.8,230.2l-12.6-22.9c0,0-68.8,13.5-71.4,14.4c-2.3,1.2,72.6-101.8,72.6-101.8l-108.7,15.3l6.7,14.5
	l47.1-7.1c-7.7,25.7-46.6,95-46.6,95L230.8,230.2z"/>
<path class="st10" d="M289.1,110.6c10.9-1,26.5,0,36.3,5.3c-0.6,1.8-1,9.5-0.2,11.1c2.2-1.9,7.6-7.5,10.5-7.8
	c8.4-0.8,14.9,4.3,15.7,12.6c0.4,4.4-1.1,8.8-4.1,12c1.7,1.1,4.1,2,6.2,1.9c2.2,5.8,2.9,14.2,3.5,20.4c1.2,12.8-4.9,31.4-12,36.4
	c-3.7,15.8-10,26.3-16.9,33.2c-14.1,8.9-23.5,8.1-26.9,8.5c-3.5,0.3-12.6,2.7-28-3.6c-8-5.6-16-14.8-22.4-29.8
	c-7.8-3.7-17.1-20.9-18.1-33.7c-0.5-6.2-1.3-14.6-0.1-20.7c2.1-0.3,4.3-1.6,5.8-3c-3.5-2.7-5.8-6.7-6.1-11.1
	c-0.7-8.4,4.9-14.5,13.3-15.2c2.9-0.2,9.2,4.3,11.7,5.8c0.4-1.8-1.3-9.3-2.2-10.9C263.9,115.2,278.2,111.5,289.1,110.6L289.1,110.6z
	"/>
<path class="st11" d="M292,141.7c0,0,3.5-4.6,7.4-6c9.8,0.6,18.1,2.6,23.3,6c6.4,8.3,10.6,13,10.3,23.3c-0.3,10.2-2.9,15.1-3.7,16.8
	c-0.8,1.7-3.6,5.2-3.6,5.2s1.6,8.7,0.9,11.4c-0.4,1.4-0.8,2.8-1.4,4.2c-2.2,1.9-4.9,4.5-7.4,5.5c-7.9,3.4-16.3-2.5-16.3-2.5l0.5-8.6
	c-0.4-4.5,7-6.5,7-6.5c1.3-0.9-0.2-6.7-3.3-5.5c-3.7,1.5-4.8,0.7-9.6,0.5c-4.6,1.1-5.7,2.1-9.6,1.2c-3.3-0.6-3.7,5.4-2.3,6
	c0,0,7.6,0.6,8,5.2l2,8.4c0,0-7.2,7.2-15.6,5.3c-2.6-0.5-5.7-2.6-8.2-4.1c-0.8-1.2-1.5-2.5-2.1-3.9c-1.1-2.6-1.1-11.4-1.1-11.4
	s-3.3-3-4.4-4.5c-1.1-1.6-4.5-5.9-6.6-15.9s1.2-15.4,6.1-24.7c4.5-4.3,12.3-7.7,21.9-9.9C288.2,137.7,292,141.7,292,141.7L292,141.7
	z"/>
<path class="st8" d="M317.1,168.9c0-0.6-0.3-1.6-0.5-2.1c3.7,0,7.8,1.1,7.8,1.1c0.9-0.2,1.2-0.9,0.9-2c0,0-6.3-3.6-13.6-2.6
	c-6.6,0.8-8.5,6.4-8.5,6.4s0,1.6,0.5,2c0.9,0.5,1.4,0.3,2.2-0.2c0.6-0.4,0.9-0.8,1.6-2.4c0.3,3,2.4,4.6,4.8,4.6
	C315.1,173.8,317.2,171.7,317.1,168.9z M271.7,172.9c-0.1-0.6,0-1.6,0.1-2.2c-3.7,0.6-7.5,2.5-7.5,2.5c-0.9-0.1-1.3-0.7-1.3-1.8
	c0,0,5.6-4.6,12.9-5c6.7-0.3,9.5,4.8,9.5,4.8s0.3,1.6-0.2,2c-0.8,0.7-1.3,0.6-2.2,0.2c-0.6-0.3-1-0.6-2-2c0.3,3-1.5,5-3.9,5.4
	C274.6,177.4,272.2,175.6,271.7,172.9z"/>
<path class="st11" d="M299.8,229.8c0,0-6.8,1.4-11.3-1.5c-3.3-2.1-5.5-5.1-8-8.7c-2.2-1.7-4-3-4.5-5.5l1.4,0.5c0,0,6.9,2.6,10.6,2.2
	c4.1-0.5,5.6-2.6,10.8-3.1c5.2-0.4,6.7,1.4,10.8,1.2c3.8-0.2,10.1-4,10.1-4l1.3-0.7c-0.1,2.5-1.7,4.1-3.5,6.2c-1.9,4-3.5,7.3-6.4,10
	C307.2,229.9,299.8,229.8,299.8,229.8L299.8,229.8z"/>
<polygon class="st0" points="296.8,582.3 223.8,426.9 371.5,426.7 "/>
<ellipse class="st0" cx="295" cy="582.3" rx="72.1" ry="9.6"/>
</svg>
